<?xml version="1.0" encoding="utf-8"?>
<!-- Generator: Adobe Illustrator 19.2.0, SVG Export Plug-In . SVG Version: 6.00 Build 0)  -->
<svg version="1.1" id="Слой_1" xmlns="http://www.w3.org/2000/svg" xmlns:xlink="http://www.w3.org/1999/xlink" x="0px" y="0px"
	 viewBox="0 0 45 45" style="enable-background:new 0 0 45 45;" xml:space="preserve">
<style type="text/css">
	.st0{fill:#EBDED2;}
	.st1{fill-rule:evenodd;clip-rule:evenodd;fill:#EBDED2;}
	.st2{fill:#fff;stroke:#EBDED2;stroke-width:2;stroke-miterlimit:10;}
</style>
<g><circle class="st2" cx="22.2121353" cy="22.7862263" r="20"/>
<path class="st1" d="M22.066391,15.4865828c1.9107513,0,3.7068081,0.8441133,5.0259266,2.1662874v0.005125
	c0-0.6349335,0.4268703-1.113287,1.020443-1.113287l0.1498127-0.0009842c0.9278927,0,1.1181488,0.8781509,1.1181488,1.1559944
	l0.0047989,9.8705978c-0.0654469,0.6458416,0.6667023,0.9792099,1.072876,0.5653172
	c1.584938-1.6288967,3.4808044-8.3732452-0.9852886-12.2810535c-4.1625576-3.643466-9.7475586-3.0428305-12.7177486-0.9955721
	c-3.1575232,2.1778517-5.1780052,6.9971914-3.2152786,11.5239019c2.1393461,4.9383373,8.2616062,6.4103565,11.9002419,4.9421806
	c1.8425789-0.7440109,2.693594,1.746973,0.779953,2.5606327c-2.8915386,1.2323494-10.9391689,1.1081619-14.698411-5.4042034
	c-2.5399351-4.3974304-2.4047098-12.1347885,4.3317881-16.1433601c5.1533318-3.0662556,11.9475517-2.2169819,16.0443687,2.0617113
	c4.2825394,4.4728317,4.0329475,12.8483448-0.144392,16.1064663c-1.8926163,1.4787216-4.7034969,0.0388012-4.6855259-2.1172371
	l-0.0194168-0.7048817c-1.3180008,1.3077507-3.0715446,2.0706844-4.982296,2.0706844
	c-3.775013,0-7.0966406-3.3219585-7.0966406-7.0956554C14.9697504,18.8463879,18.291378,15.4865828,22.066391,15.4865828
	L22.066391,15.4865828L22.066391,15.4865828L22.066391,15.4865828z M26.8173618,22.3859043
	c-0.1422882-2.7643623-2.1938858-4.4266396-4.6715622-4.4266396h-0.0933704c-2.8593082,0-4.4452324,2.2487526-4.4452324,4.8026524
	c0,2.86026,1.9186344,4.6666012,4.4339962,4.6666012c2.8047695,0,4.6491222-2.0543213,4.7825756-4.4843616L26.8173618,22.3859043z"
	/></g>
</svg>
