<?xml version="1.0" encoding="utf-8"?>
<!-- Generator: Adobe Illustrator 19.2.0, SVG Export Plug-In . SVG Version: 6.00 Build 0)  -->
<svg version="1.1" id="Слой_1" xmlns="http://www.w3.org/2000/svg" xmlns:xlink="http://www.w3.org/1999/xlink" x="0px" y="0px"
	 viewBox="0 0 45 45" style="enable-background:new 0 0 45 45;" xml:space="preserve">
<style type="text/css">
	.st0{fill:#EBDED2;}
	.st1{fill-rule:evenodd;clip-rule:evenodd;fill:#EBDED2;}
	.st2{fill:#fff;stroke:#EBDED2;stroke-width:2;stroke-miterlimit:10;}
</style>
<g>
	<circle class="st2" cx="22.4983597" cy="22.5" r="20"/>
<path id="Shape_5_" class="st0" d="M22.4999847,13.7460966c1.4568081,0,2.7055206,1.14464,2.7055206,2.705514
	c0,1.4568176-1.2487125,2.705513-2.7055206,2.705513c-1.45681,0-2.7055225-1.2486992-2.7055225-2.705513
	S21.0431747,13.7460966,22.4999847,13.7460966L22.4999847,13.7460966z M22.4999847,22.9032288
	c3.5379753,0,6.4516258-2.9136314,6.4516258-6.4516144S26.0379601,10,22.4999847,10s-6.4516277,2.9136314-6.4516277,6.4516144
	C15.9443254,19.9895935,18.8579445,22.9032288,22.4999847,22.9032288z M25.1014404,28.106142
	c1.3527451-0.3121777,2.6014576-0.832468,3.7461052-1.560873c0.9365177-0.5202923,1.1446476-1.7689877,0.6243553-2.6014576
	c-0.5202904-0.8324661-1.7690029-1.14464-2.6014557-0.6243477c-2.7055225,1.6649303-6.035368,1.6649303-8.7408905,0
	c-0.9365177-0.5202923-2.0811653-0.3121738-2.6014566,0.6243477c-0.5202913,0.8324699-0.3121624,2.0811653,0.6243563,2.6014576
	c1.1446476,0.728405,2.4973927,1.2486954,3.7461052,1.560873l-3.6420403,3.6420403
	c-0.7284212,0.7284069-0.7284212,1.9771099,0,2.7055149c0.4162254,0.4162331,0.8324528,0.5202904,1.3527451,0.5202904
	c0.5202904,0,0.9365177-0.2081146,1.3527451-0.5202904l3.5379753-3.5379848l3.5379753,3.5379848
	c0.7284203,0.728405,1.9771004,0.728405,2.7055206,0s0.7284203-1.977108,0-2.7055149L25.1014404,28.106142z"/>

</g>
</svg>
