<?xml version="1.0" encoding="utf-8"?>
<!-- Generator: Adobe Illustrator 19.2.0, SVG Export Plug-In . SVG Version: 6.00 Build 0)  -->
<svg version="1.1" id="Слой_1" xmlns="http://www.w3.org/2000/svg" xmlns:xlink="http://www.w3.org/1999/xlink" x="0px" y="0px"
	 viewBox="0 0 45 45" style="enable-background:new 0 0 45 45;" xml:space="preserve">
<style type="text/css">
	.st0{fill:#EBDED2;}
	.st1{fill-rule:evenodd;clip-rule:evenodd;fill:#EBDED2;}
	.st2{fill:#fff;stroke:#EBDED2;stroke-width:2;stroke-miterlimit:10;}
</style>
<g><circle class="st2" cx="22.1585789" cy="22.5" r="20"/>
<path id="Shape_4_" class="st0" d="M23.7872677,29.4960461c0,0,0.499939,0,0.6999283-0.2999668
	c0.1999893-0.1999722,0.1999893-0.599926,0.1999893-0.599926s0-1.9997635,0.8998852-2.2997303
	c0.8998871-0.2999668,2.0997581,1.8997765,3.2995968,2.6996765c0.8998871,0.599926,1.69981,0.499939,1.69981,0.499939h3.2995968
	c0,0,1.69981-0.0999851,0.8998833-1.4998207c-0.0999908-0.099987-0.499939-0.9998817-2.4997025-2.7996693
	c-2.0997543-1.8997765-1.7997723-1.5998096,0.6999321-4.8994198c1.4998207-1.9997616,2.0997543-3.1996212,1.9997597-3.7995472
	c-0.1999893-0.4999409-1.2998314-0.3999538-1.2998314-0.3999538h-3.7995377c0,0-0.2999516,0-0.499939,0.099987
	c-0.1999893,0.0999851-0.3000145,0.3999653-0.3000145,0.3999653s-0.5999336,1.5998077-1.399826,2.8996563
	c-1.6998119,2.7996655-2.299715,2.8996563-2.5996971,2.7996655c-0.5999355-0.3999538-0.4999409-1.5998077-0.4999409-2.4997025
	c0-2.6996803,0.3999462-3.7995472-0.7998924-4.0995102c-0.3999462-0.099987-0.6999302-0.1999779-1.7997742-0.1999779
	c-1.2998333,0-2.4997025,0-3.099638,0.299964c-0.3999462,0.1999769-0.7998924,0.6999178-0.5999355,0.6999178
	c0.1999893,0,0.7998943,0.099987,1.0998764,0.4999409c0.3999462,0.4999409,0.3999462,1.6997986,0.3999462,1.6997986
	s0.1999893,3.1996193-0.4999409,3.5995693c-0.4999409,0.2999649-1.1998692-0.299963-2.6996918-2.7996655
	c-0.7998915-1.2998447-1.2998323-2.6996803-1.2998323-2.6996803s-0.0999937-0.299963-0.2999525-0.3999538
	c-0.1999884-0.199976-0.5999346-0.199976-0.5999346-0.199976h-3.5995779c0,0-0.4999409,0-0.6999292,0.199976
	c-0.1999884,0.1999779,0,0.5999279,0,0.5999279s2.799655,6.3992405,5.9992876,9.6988468
	c2.8996487,2.9996433,6.1992741,2.7996693,6.1992741,2.7996693H23.7872677L23.7872677,29.4960461z"/></g>
</svg>
