<svg id="Layer_1" xmlns="http://www.w3.org/2000/svg" viewBox="0 0 165 36"><style>.st0{fill:#FFF}.st1{fill:#c0311c}.st2{fill:#92c42d}.st3{fill:#63b13b}</style><path class="st0" d="M32.087 5.36c.167-.352.162-.354 1.047-2.48-2.117-.255-3.268-.44-5.123-.403a17.34 17.34 0 0 0-7.9-1.892C10.492.585 2.695 8.382 2.695 18c0 9.618 7.797 17.415 17.415 17.415 9.618 0 17.415-7.797 17.415-17.415 0-4.978-2.09-9.468-5.438-12.64"/><path id="_x35__24_" class="st1" d="M30.82 7.774a.163.163 0 0 0-.24.007 11.04 11.04 0 0 1-2.48 2.184 11.228 11.228 0 0 1-6.09 1.79c-4.09 0-6.376-1.986-8.29-3.452a.163.163 0 0 1 0-.26c2.91-2.19 5.327-3.62 7.735-4.48a.162.162 0 0 0-.04-.314c-.43-.038-.865-.058-1.305-.058C11.93 3.19 5.3 9.82 5.3 18c0 4.512 2.017 8.552 5.2 11.27a.16.16 0 0 0 .15.03.16.16 0 0 0 .11-.106l.603-1.928a.163.163 0 0 1 .19-.11c7.924 1.73 11.32-2.575 10.76-5.222-.476-2.26-4.178-4.27-9.643-1.21a.166.166 0 0 1-.137.01.174.174 0 0 1-.044-.025l-.017-.014a.16.16 0 0 1-.06-.16l1.853-9.42a.16.16 0 0 1 .245-.106c.537.34 2.073 1.31 3.747 2.323a.163.163 0 0 1 .077.162c-.058.41-.264 1.895-.375 2.5a.163.163 0 0 0 .202.186c9.108-2.457 11.01 3.28 10.78 6.013-.527 6.196-7.342 9.474-13.43 9.555a.162.162 0 0 0-.048.316 14.8 14.8 0 0 0 4.646.744c8.18 0 14.81-6.63 14.81-14.81 0-3.966-1.56-7.568-4.1-10.226"/><g id="Leaf_24_"><path class="st2" d="M16.297 8.17c4.924 3.727 12.115 1.835 14.516-3.936h-.007A42.634 42.634 0 0 1 16.3 8.168h-.003"/><path class="st3" d="M16.3 8.17a42.63 42.63 0 0 0 14.505-3.937c-5-.587-10.21.68-14.506 3.936"/></g><path class="st0" d="M91.432 14.188c-1.87 0-2.995 1.218-3.92 2.662h-.043c0-1.512-.61-2.662-2.32-2.662-2.027 0-3.13 1.534-3.853 2.797h-.043c.118-.464.258-1.148.36-1.733a.66.66 0 0 0-.65-.77H78.91l-1.85 10.266a.613.613 0 0 0 .6.72h2.175l.158-.903c1.08-6.113 2.567-7.806 3.737-7.806.855 0 .945.81.744 1.895l-1.113 6.01a.683.683 0 0 0 .67.803h2.108l.158-.903c1.06-6.068 2.547-7.806 3.762-7.806.81 0 .923.745.72 1.895l-1.115 6.137a.574.574 0 0 0 .56.676h2.2l1.237-6.97c.113-.566.158-1.06.158-1.513 0-1.873-.877-2.797-2.386-2.797zm12.238-2.32l.95.165c.28.033.514.074.608-.365l.337-1.19c.084-.365-.03-.45-.382-.507l-.888-.157c-.198-.018-.502-.098-.606.34l-.348 1.22c-.072.286.008.447.328.494zM75.696 14.48h-4.192c-3.106 0-5.18 1.33-5.18 3.812 0 1.308.924 2.144 1.85 2.256v.02c-.362.14-.768.59-1.197 1.106-.764.97-1.306 1.604-1.8 1.604a.18.18 0 0 0-.18.156l-.25 1.733a.248.248 0 0 0 .06.207.25.25 0 0 0 .196.09h.894c1.42 0 1.937-.562 3.333-2.325 1.08-1.42 1.486-1.87 2.14-1.87h.472l-.69 3.89a.253.253 0 0 0 .058.21.25.25 0 0 0 .2.096h2.42a.26.26 0 0 0 .257-.214l1.866-10.466a.26.26 0 0 0-.257-.306zM72.2 19.265h-1.53c-.946 0-1.394-.317-1.394-.97 0-1.082.674-1.624 1.98-1.624h1.418l-.473 2.595zm-3.806-9.863c11.654-.484 30.09 1.678 30.09 1.678.235.033.444-.068.508-.275l.19-.58.003-.007.317-.992a.223.223 0 0 0-.022-.187.227.227 0 0 0-.156-.102c-2.286-.304-19.112-2.49-31.344-2.18-11.507.293-21.177 2.568-23.76 3.25a.538.538 0 0 0-.394.42l-.278 1.486c-.015.076.01.15.065.2a.22.22 0 0 0 .203.06c2.09-.46 4.988-.954 8.823-1.433l-2.557 14.205c-.064.25-.064.53.385.53h2.485c.164 0 .377-.032.424-.43l2.407-13.837c.006-.02.164-.766.974-.952h.012c1.037-.106 2.83-.22 3.926-.31l-2.66 15.038c-.097.512.17.493.362.49h2.597c.218-.005.51-.034.597-.518l2.5-14.406h.007s.157-.75.96-.936c1.25-.084 2.06-.157 3.334-.212zm32.218 2.034l1.068.14c.29.034.53.08.63-.372l.35-1.243c.087-.387-.03-.478-.396-.54l-1-.133c-.206-.02-.52-.094-.63.358l-.363 1.27c-.072.3.01.46.342.52zm4.192 5.597c0-1.805-1.26-2.845-3.354-2.845-3.513 0-6.306 3.046-6.306 7.15 0 2.595 1.442 4.4 4.21 4.4 2.164 0 3.537-.856 4.415-1.58l-1.15-1.94c-.696.588-1.643 1.152-2.79 1.152-1.217 0-1.668-.745-1.735-2.008 3.648-.405 6.71-1.647 6.71-4.33zm-6.552 2.456c.384-1.6 1.33-3.024 2.702-3.024.7 0 1.036.295 1.036.904 0 1.15-1.51 1.895-3.738 2.12zm15.245-5.302c-1.916 0-2.928 1.308-3.83 2.863h-.046c.108-.397.198-.767.28-1.147a1.175 1.175 0 0 0-1.146-1.42h-1.405l-2.907 15.903h1.642c.732 0 1.36-.524 1.49-1.246l.65-3.56c.226.068.723.158 1.532.158 3.805 0 6.554-3.09 6.554-7.83 0-2.254-1.08-3.72-2.813-3.72zm-3.74 9.386c-.63 0-.946-.093-1.126-.136l.114-.61c.832-4.038 2.25-6.09 3.537-6.09.697 0 .99.654.99 1.646 0 3.226-1.576 5.19-3.513 5.19zm49.624-9.386c-4.074 0-6.91 3.226-6.91 7.942 0 2.257 1.147 3.61 2.836 3.61 1.78 0 2.86-1.33 3.717-2.932h.045a14.5 14.5 0 0 0-.265 1.655.9.9 0 0 0 .898 1.006h1.89c.022-.812.157-2.617.696-5.642l.925-5.007c-.517-.225-1.868-.632-3.83-.632zm.52 2.933c-.744 4.108-2.185 6.092-3.38 6.092-.697 0-1.01-.54-1.01-1.58 0-3.09 1.62-5.234 3.422-5.234.427 0 .833.068 1.058.137l-.09.586zm-11.28 4.018c-.315-.655-.63-1.062-.946-1.376l4.817-5.28h-2.635c-.455 0-.89.2-1.188.544l-3.38 3.902h-.608l.655-3.592a.72.72 0 0 0-.71-.855h-2.108l-1.96 10.988h2.124c.48 0 .888-.343.972-.814l.666-3.72h.336c.654 0 1.037.7 1.735 2.167.788 1.714 1.194 2.368 2.612 2.368h1.148l.407-2.188h-.25c-.585 0-1.012-.676-1.688-2.142zm-11.912-5.98c-.448 2.798-1.892 4.647-3.264 4.647-.72 0-.97-.52-.743-1.735l.354-2.16a1.225 1.225 0 0 0-1.212-1.428h-1.46l-.677 3.724a7.63 7.63 0 0 0-.135 1.353c0 1.824.88 2.84 2.43 2.84 1.962 0 3.222-1.285 4.034-2.663h.045c-.34 1.672-.745 4.153-.926 5.73h2.838c.047-.81.228-2.614.766-5.64l.968-5.345h-2.905l-.112.677zm-13.103-.97c-3.56 0-6.215 3.16-6.215 6.97 0 2.504 1.553 4.58 4.39 4.58 3.65 0 6.17-3 6.17-6.97 0-2.616-1.576-4.58-4.345-4.58zm-1.554 9.293c-1.125 0-1.69-.945-1.69-2.39 0-2.028 1.15-4.645 2.996-4.645 1.126 0 1.667.857 1.667 2.368 0 2.007-1.035 4.668-2.972 4.668z"/></svg>