<svg id="Слой_1" xmlns="http://www.w3.org/2000/svg" viewBox="0 0 45 45"><style>.st0{fill:#de8344;stroke:#de8344;stroke-width:2;stroke-miterlimit:10}.st1{fill:#4b658a;stroke:#4b658a}.st1,.st2{stroke-width:2;stroke-miterlimit:10}.st2{fill:#4989c7;stroke:#4989c7}.st3,.st4{fill:#FFF}.st4{fill-rule:evenodd;clip-rule:evenodd}</style><circle class="st2" cx="22.212" cy="22.786" r="20"/><path class="st4" d="M22.066 15.487c1.91 0 3.707.844 5.026 2.166v.005c0-.635.427-1.113 1.02-1.113h.15c.928 0 1.12.877 1.12 1.155l.004 9.87c-.066.646.666.98 1.072.566 1.585-1.63 3.48-8.374-.985-12.28-4.162-3.645-9.747-3.044-12.718-.997-3.157 2.177-5.178 6.996-3.215 11.523 2.14 4.938 8.262 6.41 11.9 4.942 1.843-.744 2.694 1.747.78 2.56-2.89 1.233-10.94 1.11-14.698-5.403-2.54-4.398-2.405-12.135 4.332-16.144C21.007 9.272 27.8 10.12 31.898 14.4c4.283 4.473 4.033 12.848-.144 16.106-1.893 1.48-4.704.04-4.686-2.117l-.02-.706c-1.317 1.308-3.07 2.07-4.982 2.07-3.775 0-7.096-3.32-7.096-7.095 0-3.814 3.32-7.173 7.096-7.173zm4.75 6.9c-.14-2.765-2.193-4.428-4.67-4.428h-.094c-2.86 0-4.445 2.248-4.445 4.802 0 2.86 1.92 4.667 4.434 4.667 2.806 0 4.65-2.056 4.784-4.486l-.007-.558z"/></svg>