<svg id="Слой_1" xmlns="http://www.w3.org/2000/svg" viewBox="0 0 45 45"><style>.st0,.st1{fill:#ebded2}.st1{fill-rule:evenodd;clip-rule:evenodd}.st2{fill:#fff;stroke:#ebded2;stroke-width:2;stroke-miterlimit:10}</style><circle class="st2" cx="22.498" cy="22.5" r="20"/><path id="Shape_5_" class="st0" d="M22.5 13.746c1.457 0 2.706 1.145 2.706 2.706 0 1.456-1.25 2.705-2.706 2.705-1.457 0-2.706-1.25-2.706-2.705s1.25-2.706 2.706-2.706zm0 9.157c3.538 0 6.452-2.913 6.452-6.45S26.038 10 22.5 10s-6.452 2.914-6.452 6.452c-.104 3.538 2.81 6.45 6.452 6.45zm2.6 5.203c1.354-.312 2.603-.832 3.748-1.56.936-.52 1.144-1.77.624-2.602-.52-.833-1.77-1.145-2.602-.625a8.273 8.273 0 0 1-8.74 0c-.937-.52-2.082-.313-2.602.624-.52.832-.312 2.08.624 2.6 1.145.73 2.498 1.25 3.747 1.562l-3.643 3.642c-.73.73-.73 1.977 0 2.706.416.416.832.52 1.352.52.52 0 .936-.208 1.352-.52l3.538-3.538 3.538 3.538c.728.728 1.977.728 2.705 0s.73-1.977 0-2.706L25.1 28.106z"/></svg>