<svg id="Слой_1" xmlns="http://www.w3.org/2000/svg" viewBox="0 0 45 45"><style>.st0{fill:#de8344;stroke:#de8344;stroke-width:2;stroke-miterlimit:10}.st1{fill:#4b658a;stroke:#4b658a}.st1,.st2{stroke-width:2;stroke-miterlimit:10}.st2{fill:#4989c7;stroke:#4989c7}.st3,.st4{fill:#FFF}.st4{fill-rule:evenodd;clip-rule:evenodd}</style><circle class="st1" cx="22.159" cy="22.5" r="20"/><path id="Shape_4_" class="st3" d="M23.787 29.496s.5 0 .7-.3c.2-.2.2-.6.2-.6s0-2 .9-2.3c.9-.3 2.1 1.9 3.3 2.7.9.6 1.7.5 1.7.5h3.3s1.7-.1.9-1.5c-.1-.1-.5-1-2.5-2.8-2.1-1.9-1.8-1.6.7-4.9 1.5-2 2.1-3.198 2-3.798-.2-.5-1.3-.4-1.3-.4h-3.8s-.3 0-.5.1-.3.4-.3.4-.6 1.6-1.4 2.9c-1.7 2.8-2.3 2.9-2.6 2.8-.6-.4-.5-1.6-.5-2.5 0-2.7.4-3.8-.8-4.1-.4-.1-.7-.2-1.8-.2-1.3 0-2.5 0-3.1.3-.4.2-.8.7-.6.7.2 0 .8.1 1.1.5.4.5.4 1.7.4 1.7s.2 3.2-.5 3.6c-.5.3-1.2-.3-2.7-2.8-.8-1.3-1.3-2.7-1.3-2.7s-.1-.3-.3-.4c-.2-.2-.6-.2-.6-.2H10.79s-.5 0-.7.2c-.2.2 0 .6 0 .6s2.8 6.4 5.998 9.698c2.9 3 6.2 2.8 6.2 2.8h1.5z"/></svg>